PathFileType	4	(X/Y/Z)	\\Move.snu.ac.kr\motion\Animal\091204_091205_Bird\091205_bird\Project 2\Capture day 2\Session 1\pigeon_011.trc
DataRate	CameraRate	NumFrames	NumMarkers	Units	OrigDataRate	OrigDataStartFrame	OrigNumFrames
240.0	240.0	18	14	mm	240.0	186	1439
Frame#	Time	14MarkersBird:Head			14MarkersBird:C_back			14MarkersBird:Spine			14MarkersBird:L-shoulder			14MarkersBird:L-elbow			14MarkersBird:L-wrist			14MarkersBird:L-hand			14MarkersBird:R-shoulder			14MarkersBird:R-elbow			14MarkersBird:R-Wrist			14MarkersBird:R-hand			14MarkersBird:C_Tail			14MarkersBird:L-Tale			14MarkersBird:R-Tale			
		X1	Y1	Z1	X2	Y2	Z2	X3	Y3	Z3	X4	Y4	Z4	X5	Y5	Z5	X6	Y6	Z6	X7	Y7	Z7	X8	Y8	Z8	X9	Y9	Z9	X10	Y10	Z10	X11	Y11	Z11	X12	Y12	Z12	X13	Y13	Z13	X14	Y14	Z14	

803	3.342	-181.04564	493.86996	485.81528	-202.55611	498.00464	430.67087	-230.08200	492.64761	381.39017	-175.12332	488.56516	446.07166	-185.00333	509.00555	408.91031	-142.56921	516.72003	421.58887	-138.96265	500.90588	396.86774	-208.12184	495.72101	464.36447	-223.75818	518.94995	436.93530	-233.02512	534.92798	475.23959	-267.89838	519.69757	470.76492	-283.70813	411.68500	299.86569	-182.38464	424.68768	312.43054	-340.27145	462.03668	387.04184	
804	3.346	-173.02721	488.01572	503.03439	-194.79738	491.67572	448.03046	-222.37195	486.06918	398.57321	-167.30009	482.27380	463.26917	-179.32831	505.41901	428.00980	-137.37502	517.04321	436.77158	-135.52823	510.59561	408.15442	-199.75618	489.69458	481.04895	-211.17961	513.12390	452.34860	-223.64034	534.93646	487.86816	-259.85495	532.37469	476.43884	-275.85446	405.63510	316.56613	-170.72957	424.86789	328.96411	-333.08572	463.07239	405.84811	
805	3.350	-165.08841	482.03705	520.18091	-187.13486	485.42834	465.05246	-214.96748	479.01895	415.46347	-159.39980	475.93372	480.19595	-172.01974	501.98749	446.54279	-130.78659	515.40338	451.69492	-130.79434	519.18866	422.92377	-191.85349	483.30682	497.82761	-200.15291	506.52167	468.99371	-215.16539	533.43243	501.72751	-248.24104	543.81689	484.49377	-267.95215	400.33524	332.31693	-159.53355	425.02634	345.60992	-325.51984	463.97537	424.83075	
806	3.354	-157.22476	475.95685	537.21838	-179.45222	479.07996	481.93558	-207.88092	471.40060	432.24680	-151.43951	469.57932	496.92667	-162.84003	498.57813	464.65283	-122.43573	511.87616	465.85187	-123.48599	524.81934	439.88065	-184.44870	476.70724	514.84515	-191.07410	500.06155	486.89432	-208.55452	530.56586	516.90564	-235.83842	552.18524	496.99030	-259.97394	396.02417	347.12909	-149.31589	423.52942	362.63785	-317.72485	463.14575	443.74884	
807	3.358	-149.41530	469.81528	554.11530	-171.58623	472.51047	498.90955	-200.90182	463.43842	449.01019	-143.44400	463.29544	513.48553	-151.72791	493.69153	482.66043	-112.56134	506.27966	479.37891	-112.77489	525.66077	457.32031	-177.45340	470.08975	532.01184	-183.88817	494.37228	505.78635	-203.96832	526.08667	533.30054	-225.89807	555.96027	514.85614	-251.93716	392.93918	361.16675	-140.11331	419.68896	380.00952	-310.05438	459.41544	462.40079	
808	3.362	-141.63222	463.66507	570.85760	-163.51884	465.79330	515.93732	-193.70250	455.80237	465.49637	-135.43654	457.16943	529.85608	-139.16629	486.03198	500.49460	-101.54756	498.24820	492.96146	-98.56539	520.69556	473.95767	-170.55896	463.66278	549.16565	-178.27257	489.34027	525.08679	-200.81779	519.60248	550.96674	-220.18007	554.21149	537.49255	-243.92923	390.98703	374.82501	-131.73643	413.84677	397.50757	-302.72266	452.70908	480.60895	
809	3.367	-133.84119	457.55240	587.45221	-155.56038	459.28122	532.38062	-186.19409	448.92014	481.63452	-127.43754	451.22260	546.09601	-126.49564	476.14059	517.29529	-89.62189	487.65201	507.39096	-81.75837	510.07999	489.80048	-163.39197	457.54568	566.23608	-173.70825	484.26404	544.25079	-198.10988	511.00763	570.20447	-218.11383	546.88385	563.52234	-236.08936	389.43915	388.71780	-123.98536	406.68854	414.88040	-295.64066	443.99719	498.23837	
810	3.371	-126.01095	451.53110	603.93628	-147.93454	453.22705	547.82666	-178.57588	442.57919	497.90305	-119.47009	445.38803	562.29712	-114.86262	465.72540	532.52673	-77.02574	474.69467	523.15527	-63.82336	494.83606	506.02039	-155.78694	451.68219	583.30029	-169.61205	478.35809	563.15344	-194.92435	500.50244	591.25470	-217.61426	534.75690	591.77728	-228.51675	387.06113	403.46768	-116.71933	398.67758	431.93793	-288.57791	434.45065	515.27155	
811	3.375	-118.11340	445.67545	620.36292	-140.43013	447.49014	562.75964	-171.03656	436.42014	514.79797	-111.50740	439.60110	578.53174	-104.04931	455.65829	547.11743	-64.27853	459.85660	540.55939	-46.19981	476.26138	523.98285	-147.84050	445.89764	600.41931	-165.45093	471.27213	582.15088	-190.59926	488.24414	613.87695	-216.46040	518.77527	621.35419	-221.20433	382.60620	419.54425	-109.85875	390.10577	448.61050	-281.35498	424.83002	531.86090	
812	3.379	-110.11690	440.04431	636.77722	-132.72768	441.85919	577.94025	-163.47115	430.54706	532.14325	-103.45548	433.88300	594.85199	-93.12431	445.78070	562.53235	-52.13634	443.83545	559.85736	-30.04058	455.48770	544.53375	-139.70084	440.11151	617.54663	-160.78619	463.19092	601.79810	-184.65828	474.31702	637.33453	-213.08708	499.60086	651.30634	-214.03488	375.41714	437.18182	-103.33105	381.31229	465.01001	-273.87128	415.55136	548.26910	
813	3.383	-101.97562	434.64508	653.20575	-124.74123	436.42108	593.68939	-155.65866	425.28329	549.36713	-95.24210	428.30432	611.30487	-83.13718	435.55609	578.95734	-41.34580	427.41721	581.08337	-16.25675	433.51471	567.89490	-131.41626	434.43469	634.60156	-155.33769	454.43683	622.40955	-176.78703	458.99747	660.71674	-206.57222	477.86465	680.58954	-206.87225	365.81586	456.35550	-97.02451	372.70163	481.37985	-266.07626	406.97253	564.68414	
814	3.388	-93.65107	429.45297	669.67877	-116.50364	431.35916	610.00098	-147.52695	420.63528	566.26666	-86.87267	422.95300	627.92511	-72.63161	425.52356	597.56952	-32.41043	411.43140	603.87866	-5.60255	411.45026	593.78369	-123.00471	428.98758	651.54309	-148.98590	445.21362	643.73004	-166.88161	442.89636	683.25006	-196.46782	454.39554	708.15802	-199.63000	355.03625	476.72507	-90.77485	364.58548	497.94247	-257.96869	399.42648	581.16541	
815	3.392	-85.13947	424.41534	686.23657	-108.11284	426.75098	626.65009	-139.15204	416.33905	583.04010	-78.39719	417.91492	644.71600	-62.34164	415.47784	615.96307	-25.47665	396.74686	627.66595	1.43466	390.60162	621.57410	-114.51166	423.80603	668.40997	-141.65515	435.77521	664.98181	-155.00053	426.89438	704.41693	-182.71385	430.36700	733.10345	-192.30061	344.61514	497.63568	-84.39019	357.07214	514.77032	-249.59523	393.01450	597.72638	
816	3.396	-76.46186	419.47589	702.92310	-99.61453	422.52451	643.48047	-130.62254	412.17120	599.84784	-69.83842	413.23276	661.64557	-53.00709	406.11282	634.55957	-20.30896	384.17645	651.82983	4.91761	372.37247	650.38647	-105.93406	418.92899	685.28168	-133.46199	426.57175	685.29962	-141.36310	411.92224	723.86096	-165.69319	407.23511	754.83246	-184.91489	335.60519	518.33667	-77.70928	350.08710	531.82245	-241.03271	387.49875	614.39966	
817	3.400	-67.64402	414.59744	719.75629	-91.02310	418.56693	660.39166	-121.98795	408.01950	616.71014	-61.17892	408.88327	678.68268	-44.47020	397.70084	652.89630	-16.24475	374.40707	675.78516	5.58390	358.00861	679.19690	-97.20219	414.36856	702.18927	-124.76490	418.13339	704.21143	-126.44769	398.99487	741.59045	-146.24675	386.61493	773.29828	-177.40070	328.26288	538.27551	-70.64841	343.48828	549.04199	-232.36037	382.39026	631.22528	
818	3.404	-58.70892	409.75629	736.76001	-82.31749	414.72440	677.38397	-113.23666	403.84564	633.58362	-52.40578	404.76480	695.81970	-36.49223	390.40475	670.63342	-12.29094	367.88138	698.89795	4.82173	348.30759	706.87408	-88.27916	410.05212	719.14221	-115.93708	410.82669	721.80377	-111.06121	389.08395	757.94257	-125.57671	370.15900	789.08990	-169.53210	322.29822	557.20105	-63.19337	337.18716	566.35931	-223.61371	377.14590	648.17468	
819	3.408	-49.66229	404.91745	753.96375	-73.45762	410.79587	694.55072	-104.37950	399.48914	650.61121	-43.53679	400.71347	713.08374	-28.79033	384.35864	687.59583	-7.39032	364.65100	720.45880	4.50760	343.38007	732.29175	-79.20909	405.78827	736.15723	-107.18996	404.86523	738.42920	-96.27079	382.84134	773.41418	-105.30376	359.03760	803.21838	-161.07108	317.26584	575.15356	-55.45177	331.16333	583.68964	-214.74742	371.31503	665.12970	
820	3.412	-40.50278	400.05960	771.34601	-64.41928	406.56219	712.02643	-95.40207	394.89523	667.96741	-34.60099	396.53702	730.54187	-21.09838	379.71924	703.70325	-0.85474	364.24033	739.84900	6.51223	342.41724	754.46790	-70.12882	401.46307	753.36426	-98.68111	400.46326	754.35358	-83.07700	380.35770	788.54028	-87.32026	353.31000	816.73004	-151.90193	312.84280	592.34729	-47.65878	325.32529	601.00946	-205.65501	364.58728	681.97424	
